<?xml version="1.0" standalone="no"?>
<!DOCTYPE svg PUBLIC "-//W3C//DTD SVG 20010904//EN"
 "http://www.w3.org/TR/2001/REC-SVG-20010904/DTD/svg10.dtd">
<svg version="1.0" xmlns="http://www.w3.org/2000/svg"
 width="512.000000pt" height="512.000000pt" viewBox="0 0 512.000000 512.000000"
 preserveAspectRatio="xMidYMid meet">

<g transform="translate(0.000000,512.000000) scale(0.100000,-0.100000)"
fill="#000000" stroke="none">
<path d="M382 4803 c-18 -9 -43 -30 -55 -47 l-22 -31 0 -2165 0 -2165 22 -31
c50 -69 -141 -64 2240 -64 2126 0 2148 0 2181 20 18 11 41 34 52 52 20 33 20
55 20 2188 0 2133 0 2155 -20 2188 -11 18 -34 41 -52 52 -33 20 -55 20 -2183
20 -1960 0 -2153 -2 -2183 -17z m1803 -930 c167 -58 297 -155 396 -297 118
-168 158 -405 104 -611 -55 -207 -226 -404 -429 -494 -122 -53 -131 -54 -603
-58 l-443 -4 0 -540 c0 -521 -1 -541 -20 -579 -23 -45 -80 -80 -130 -80 -50 0
-107 35 -130 80 -20 39 -20 56 -20 1270 0 1213 0 1231 20 1270 12 24 35 48 58
60 36 19 53 20 572 17 l535 -2 90 -32z m1951 11 c50 -37 69 -72 69 -124 0 -52
-19 -87 -69 -124 -25 -19 -45 -21 -229 -26 -189 -5 -204 -6 -233 -27 -60 -43
-64 -65 -64 -332 l0 -240 249 -3 c275 -3 274 -3 325 -72 29 -38 29 -114 0
-152 -51 -69 -50 -69 -325 -72 l-249 -3 -2 -699 c-3 -688 -3 -699 -24 -726
-37 -50 -72 -69 -124 -69 -52 0 -87 19 -124 69 -21 27 -21 38 -24 726 l-2 698
-99 4 c-107 3 -132 13 -175 72 -29 38 -29 114 0 152 43 59 68 69 175 72 l99 4
0 238 c0 130 5 261 10 291 26 137 122 263 243 320 92 43 129 48 349 46 182 -2
199 -4 224 -23z"/>
<path d="M1210 3160 l0 -450 403 0 c331 0 413 3 462 15 152 40 280 168 319
320 51 195 -32 398 -206 502 -99 60 -129 63 -575 63 l-403 0 0 -450z"/>
</g>
</svg>
